<svg xmlns="http://www.w3.org/2000/svg" width="480" height="578" class="">
    <defs>
        <style/>
    </defs>
    <style>@keyframes animation-gauge{0%{stroke-dasharray:0 329}}@keyframes animation-rainbow{0%,to{color:#7f00ff;fill:#7f00ff}14%{color:#a933ff;fill:#a933ff}29%{color:#007fff;fill:#007fff}43%{color:#00ff7f;fill:#00ff7f}57%{color:#ff0;fill:#ff0}71%{color:#ff7f00;fill:#ff7f00}86%{color:red;fill:red}}code,svg{color:#777}svg{font-family:-apple-system,BlinkMacSystemFont,Segoe UI,Helvetica,Arial,sans-serif,Apple Color Emoji,Segoe UI Emoji}h2,h3{margin:8px 0 2px;padding:0;color:#0366d6;font-weight:400}h2 svg,h3 svg{fill:currentColor}h2{font-size:16px}h3,svg{font-size:14px}section&gt;.field{margin-left:5px;margin-right:5px}.field{display:flex;align-items:center;margin-bottom:2px;white-space:nowrap}.field svg{margin:0 8px;fill:#959da5;flex-shrink:0}.field.error{color:#cb2431}.field.error svg{fill:#cb2431}.row{display:flex;flex-wrap:wrap}.row section{flex:1 1 0}#metrics-end,.fill-width{width:100%}.margin-bottom{margin-bottom:16px}.margin-lr-auto{margin-left:auto;margin-right:auto}code{background-color:#7777771f;display:inline-block;border-radius:6px;padding:1px 5px;font-size:80%;font-family:SFMono-Regular,Consolas,Liberation Mono,Menlo,monospace}:root{--color-calendar-graph-day-bg:#ebedf0;--color-calendar-graph-day-border:rgba(27,31,35,0.06);--color-calendar-graph-day-L1-bg:#9be9a8;--color-calendar-graph-day-L2-bg:#40c463;--color-calendar-graph-day-L3-bg:#30a14e;--color-calendar-graph-day-L4-bg:#216e39;--color-calendar-halloween-graph-day-L1-bg:#ffee4a;--color-calendar-halloween-graph-day-L2-bg:#ffc501;--color-calendar-halloween-graph-day-L3-bg:#fe9600;--color-calendar-halloween-graph-day-L4-bg:#03001c;--color-calendar-winter-graph-day-L1-bg:#0a3069;--color-calendar-winter-graph-day-L2-bg:#0969da;--color-calendar-winter-graph-day-L3-bg:#54aeff;--color-calendar-winter-graph-day-L4-bg:#b6e3ff;--color-calendar-graph-day-L4-border:rgba(27,31,35,0.06);--color-calendar-graph-day-L3-border:rgba(27,31,35,0.06);--color-calendar-graph-day-L2-border:rgba(27,31,35,0.06);--color-calendar-graph-day-L1-border:rgba(27,31,35,0.06)}</style>
    <style/>
    <foreignObject x="0" y="0" width="100%" height="100%">
        <div xmlns="http://www.w3.org/1999/xhtml" xmlns:xlink="http://www.w3.org/1999/xlink" class="items-wrapper">
            <section>
                <h2 class="field">
                    <svg xmlns="http://www.w3.org/2000/svg" viewBox="0 0 16 16" width="16" height="16">
                        <path fill-rule="evenodd" d="M2.75 1.5a.25.25 0 00-.25.25v12.5c0 .138.112.25.25.25h10.5a.25.25 0 00.25-.25V4.664a.25.25 0 00-.073-.177l-2.914-2.914a.25.25 0 00-.177-.073H2.75zM1 1.75C1 .784 1.784 0 2.75 0h7.586c.464 0 .909.184 1.237.513l2.914 2.914c.329.328.513.773.513 1.237v9.586A1.75 1.75 0 0113.25 16H2.75A1.75 1.75 0 011 14.25V1.75zm7 1.5a.75.75 0 01.75.75v1.5h1.5a.75.75 0 010 1.5h-1.5v1.5a.75.75 0 01-1.5 0V7h-1.5a.75.75 0 010-1.5h1.5V4A.75.75 0 018 3.25zm-3 8a.75.75 0 01.75-.75h4.5a.75.75 0 010 1.5h-4.5a.75.75 0 01-.75-.75z"/>
                    </svg>
                    Lines of code pushed
                </h2>
                <div class="row margin-bottom">
                    <h3 class="margin-lr-auto">Diff history</h3>
                    <svg xmlns="http://www.w3.org/2000/svg" width="480" height="315">
                        <g transform="translate(0,276)" fill="none" font-size="10" font-family="sans-serif" text-anchor="middle">
                            <path class="domain" stroke="currentColor" d="M39.5,6V0.5H441.5V6"/>
                            <g class="tick" opacity="1" transform="translate(62.02100840336135,0)">
                                <line stroke="currentColor" y2="6"/>
                                <text fill="currentColor" y="9" dy="0.71em" transform="translate(-5,5) rotate(-45)" style="text-anchor: end;">February</text>
                            </g>
                            <g class="tick" opacity="1" transform="translate(85.66806722689074,0)">
                                <line stroke="currentColor" y2="6"/>
                                <text fill="currentColor" y="9" dy="0.71em" transform="translate(-5,5) rotate(-45)" style="text-anchor: end;">March</text>
                            </g>
                            <g class="tick" opacity="1" transform="translate(111.84873949579831,0)">
                                <line stroke="currentColor" y2="6"/>
                                <text fill="currentColor" y="9" dy="0.71em" transform="translate(-5,5) rotate(-45)" style="text-anchor: end;">April</text>
                            </g>
                            <g class="tick" opacity="1" transform="translate(137.1848739495798,0)">
                                <line stroke="currentColor" y2="6"/>
                                <text fill="currentColor" y="9" dy="0.71em" transform="translate(-5,5) rotate(-45)" style="text-anchor: end;">May</text>
                            </g>
                            <g class="tick" opacity="1" transform="translate(163.3655462184874,0)">
                                <line stroke="currentColor" y2="6"/>
                                <text fill="currentColor" y="9" dy="0.71em" transform="translate(-5,5) rotate(-45)" style="text-anchor: end;">June</text>
                            </g>
                            <g class="tick" opacity="1" transform="translate(188.7016806722689,0)">
                                <line stroke="currentColor" y2="6"/>
                                <text fill="currentColor" y="9" dy="0.71em" transform="translate(-5,5) rotate(-45)" style="text-anchor: end;">July</text>
                            </g>
                            <g class="tick" opacity="1" transform="translate(214.88235294117646,0)">
                                <line stroke="currentColor" y2="6"/>
                                <text fill="currentColor" y="9" dy="0.71em" transform="translate(-5,5) rotate(-45)" style="text-anchor: end;">August</text>
                            </g>
                            <g class="tick" opacity="1" transform="translate(241.06302521008405,0)">
                                <line stroke="currentColor" y2="6"/>
                                <text fill="currentColor" y="9" dy="0.71em" transform="translate(-5,5) rotate(-45)" style="text-anchor: end;">September</text>
                            </g>
                            <g class="tick" opacity="1" transform="translate(266.39915966386553,0)">
                                <line stroke="currentColor" y2="6"/>
                                <text fill="currentColor" y="9" dy="0.71em" transform="translate(-5,5) rotate(-45)" style="text-anchor: end;">October</text>
                            </g>
                            <g class="tick" opacity="1" transform="translate(292.5798319327731,0)">
                                <line stroke="currentColor" y2="6"/>
                                <text fill="currentColor" y="9" dy="0.71em" transform="translate(-5,5) rotate(-45)" style="text-anchor: end;">November</text>
                            </g>
                            <g class="tick" opacity="1" transform="translate(317.91596638655466,0)">
                                <line stroke="currentColor" y2="6"/>
                                <text fill="currentColor" y="9" dy="0.71em" transform="translate(-5,5) rotate(-45)" style="text-anchor: end;">December</text>
                            </g>
                            <g class="tick" opacity="1" transform="translate(344.0966386554622,0)">
                                <line stroke="currentColor" y2="6"/>
                                <text fill="currentColor" y="9" dy="0.71em" transform="translate(-5,5) rotate(-45)" style="text-anchor: end;">2026</text>
                            </g>
                            <g class="tick" opacity="1" transform="translate(370.2773109243698,0)">
                                <line stroke="currentColor" y2="6"/>
                                <text fill="currentColor" y="9" dy="0.71em" transform="translate(-5,5) rotate(-45)" style="text-anchor: end;">February</text>
                            </g>
                            <g class="tick" opacity="1" transform="translate(393.92436974789916,0)">
                                <line stroke="currentColor" y2="6"/>
                                <text fill="currentColor" y="9" dy="0.71em" transform="translate(-5,5) rotate(-45)" style="text-anchor: end;">March</text>
                            </g>
                            <g class="tick" opacity="1" transform="translate(420.1050420168067,0)">
                                <line stroke="currentColor" y2="6"/>
                                <text fill="currentColor" y="9" dy="0.71em" transform="translate(-5,5) rotate(-45)" style="text-anchor: end;">April</text>
                            </g>
                        </g>
                        <g transform="translate(39,0)" fill="none" font-size="10" font-family="sans-serif" text-anchor="end">
                            <path class="domain" stroke="currentColor" d="M-6,5.5H0.5V276.5H-6"/>
                            <g class="tick" opacity="1" transform="translate(0,9.44660194174757)">
                                <line stroke="currentColor" x2="-6"/>
                                <text fill="currentColor" x="-9" dy="0.32em">100</text>
                            </g>
                            <g class="tick" opacity="1" transform="translate(0,35.757281553398045)">
                                <line stroke="currentColor" x2="-6"/>
                                <text fill="currentColor" x="-9" dy="0.32em">80</text>
                            </g>
                            <g class="tick" opacity="1" transform="translate(0,62.067961165048544)">
                                <line stroke="currentColor" x2="-6"/>
                                <text fill="currentColor" x="-9" dy="0.32em">60</text>
                            </g>
                            <g class="tick" opacity="1" transform="translate(0,88.37864077669902)">
                                <line stroke="currentColor" x2="-6"/>
                                <text fill="currentColor" x="-9" dy="0.32em">40</text>
                            </g>
                            <g class="tick" opacity="1" transform="translate(0,114.68932038834953)">
                                <line stroke="currentColor" x2="-6"/>
                                <text fill="currentColor" x="-9" dy="0.32em">20</text>
                            </g>
                            <g class="tick" opacity="1" transform="translate(0,141)">
                                <line stroke="currentColor" x2="-6"/>
                                <text fill="currentColor" x="-9" dy="0.32em">0.0</text>
                            </g>
                            <g class="tick" opacity="1" transform="translate(0,167.31067961165047)">
                                <line stroke="currentColor" x2="-6"/>
                                <text fill="currentColor" x="-9" dy="0.32em">−20</text>
                            </g>
                            <g class="tick" opacity="1" transform="translate(0,193.62135922330097)">
                                <line stroke="currentColor" x2="-6"/>
                                <text fill="currentColor" x="-9" dy="0.32em">−40</text>
                            </g>
                            <g class="tick" opacity="1" transform="translate(0,219.93203883495144)">
                                <line stroke="currentColor" x2="-6"/>
                                <text fill="currentColor" x="-9" dy="0.32em">−60</text>
                            </g>
                            <g class="tick" opacity="1" transform="translate(0,246.24271844660197)">
                                <line stroke="currentColor" x2="-6"/>
                                <text fill="currentColor" x="-9" dy="0.32em">−80</text>
                            </g>
                            <g class="tick" opacity="1" transform="translate(0,272.5533980582524)">
                                <line stroke="currentColor" x2="-6"/>
                                <text fill="currentColor" x="-9" dy="0.32em">−100</text>
                            </g>
                        </g>
                        <path d="M39,140.5L44.912,140.5L50.824,140.5L56.735,140.5L62.647,140.5L68.559,140.5L74.471,140.5L80.382,140.5L86.294,140.5L92.206,140.5L98.118,140.5L104.029,140.5L109.941,140.5L115.853,140.5L121.765,140.5L127.676,140.5L133.588,140.5L139.5,140.5L145.412,140.5L151.324,140.5L157.235,140.5L163.147,140.5L169.059,140.5L174.971,140.5L180.882,140.5L186.794,140.5L192.706,140.5L198.618,140.5L204.529,140.5L210.441,140.5L216.353,140.5L222.265,140.5L228.176,140.5L234.088,140.5L240,140.5L245.912,140.5L251.824,140.5L257.735,140.5L263.647,140.5L269.559,140.5L275.471,140.5L281.382,140.5L287.294,140.5L293.206,140.5L299.118,140.5L305.029,140.5L310.941,140.5L316.853,140.5L322.765,140.5L328.676,140.5L334.588,140.5L340.5,140.5L346.412,140.5L352.324,140.5L358.235,140.5L364.147,140.5L370.059,140.5L375.971,140.5L381.882,140.5L387.794,140.5L393.706,140.5L399.618,140.5L405.529,140.5L411.441,140.5L417.353,140.5L423.265,140.5L429.176,140.5L435.088,140.5L441,140.5L441,93.141L435.088,35.257L429.176,29.995L423.265,32.626L417.353,32.626L411.441,41.835L405.529,32.626L399.618,31.311L393.706,29.995L387.794,32.626L381.882,35.257L375.971,36.573L370.059,36.573L364.147,29.995L358.235,33.942L352.324,31.311L346.412,29.995L340.5,29.995L334.588,29.995L328.676,29.995L322.765,29.995L316.853,29.995L310.941,29.995L305.029,29.995L299.118,29.995L293.206,29.995L287.294,29.995L281.382,29.995L275.471,31.311L269.559,29.995L263.647,29.995L257.735,29.995L251.824,29.995L245.912,29.995L240,29.995L234.088,29.995L228.176,29.995L222.265,24.733L216.353,5L210.441,29.995L204.529,26.049L198.618,29.995L192.706,29.995L186.794,8.947L180.882,29.995L174.971,29.995L169.059,31.311L163.147,33.942L157.235,29.995L151.324,29.995L145.412,29.995L139.5,29.995L133.588,29.995L127.676,29.995L121.765,29.995L115.853,29.995L109.941,29.995L104.029,29.995L98.118,29.995L92.206,29.995L86.294,29.995L80.382,29.995L74.471,29.995L68.559,29.995L62.647,29.995L56.735,29.995L50.824,29.995L44.912,29.995L39,29.995Z" fill="rgb(63, 185, 80)"/>
                        <path d="M39,140.5L44.912,140.5L50.824,140.5L56.735,140.5L62.647,140.5L68.559,140.5L74.471,140.5L80.382,140.5L86.294,140.5L92.206,140.5L98.118,140.5L104.029,140.5L109.941,140.5L115.853,140.5L121.765,140.5L127.676,140.5L133.588,140.5L139.5,140.5L145.412,140.5L151.324,140.5L157.235,140.5L163.147,140.5L169.059,140.5L174.971,140.5L180.882,140.5L186.794,140.5L192.706,140.5L198.618,140.5L204.529,140.5L210.441,140.5L216.353,140.5L222.265,140.5L228.176,140.5L234.088,140.5L240,140.5L245.912,140.5L251.824,140.5L257.735,140.5L263.647,140.5L269.559,140.5L275.471,140.5L281.382,140.5L287.294,140.5L293.206,140.5L299.118,140.5L305.029,140.5L310.941,140.5L316.853,140.5L322.765,140.5L328.676,140.5L334.588,140.5L340.5,140.5L346.412,140.5L352.324,140.5L358.235,140.5L364.147,140.5L370.059,140.5L375.971,140.5L381.882,140.5L387.794,140.5L393.706,140.5L399.618,140.5L405.529,140.5L411.441,140.5L417.353,140.5L423.265,140.5L429.176,140.5L435.088,140.5L441,140.5L441,187.859L435.088,245.743L429.176,251.005L423.265,248.374L417.353,248.374L411.441,239.165L405.529,248.374L399.618,249.689L393.706,251.005L387.794,248.374L381.882,245.743L375.971,244.427L370.059,244.427L364.147,251.005L358.235,247.058L352.324,249.689L346.412,251.005L340.5,251.005L334.588,251.005L328.676,251.005L322.765,251.005L316.853,251.005L310.941,251.005L305.029,251.005L299.118,251.005L293.206,251.005L287.294,251.005L281.382,251.005L275.471,249.689L269.559,251.005L263.647,251.005L257.735,251.005L251.824,251.005L245.912,251.005L240,251.005L234.088,251.005L228.176,251.005L222.265,256.267L216.353,276L210.441,251.005L204.529,254.951L198.618,251.005L192.706,251.005L186.794,272.053L180.882,251.005L174.971,251.005L169.059,249.689L163.147,247.058L157.235,251.005L151.324,251.005L145.412,251.005L139.5,251.005L133.588,251.005L127.676,251.005L121.765,251.005L115.853,251.005L109.941,251.005L104.029,251.005L98.118,251.005L92.206,251.005L86.294,251.005L80.382,251.005L74.471,251.005L68.559,251.005L62.647,251.005L56.735,251.005L50.824,251.005L44.912,251.005L39,251.005Z" fill="rgb(218, 54, 51)"/>
                    </svg>
                </div>
            </section>
            <section>
                <h2 class="field">
                    <svg xmlns="http://www.w3.org/2000/svg" viewBox="0 0 16 16" width="16" height="16">
                        <path fill-rule="evenodd" d="M1.5 8a6.5 6.5 0 1113 0 6.5 6.5 0 01-13 0zM8 0a8 8 0 100 16A8 8 0 008 0zM6.379 5.227A.25.25 0 006 5.442v5.117a.25.25 0 00.379.214l4.264-2.559a.25.25 0 000-.428L6.379 5.227z"/>
                    </svg>
                </h2>
                <div class="row fill-width">
                    <section>
                        <div class="field error">
                            <svg xmlns="http://www.w3.org/2000/svg" viewBox="0 0 16 16" width="16" height="16">
                                <path fill-rule="evenodd" d="M2.343 13.657A8 8 0 1113.657 2.343 8 8 0 012.343 13.657zM6.03 4.97a.75.75 0 00-1.06 1.06L6.94 8 4.97 9.97a.75.75 0 101.06 1.06L8 9.06l1.97 1.97a.75.75 0 101.06-1.06L9.06 8l1.97-1.97a.75.75 0 10-1.06-1.06L8 6.94 6.03 4.97z"/>
                            </svg>
                            Unexpected error
                        </div>
                    </section>
                </div>
            </section>
            <section>
                <h2 class="field">
                    <svg xmlns="http://www.w3.org/2000/svg" viewBox="0 0 16 16" width="16" height="16">
                        <path fill-rule="evenodd" d="M9.598 1.591a.75.75 0 01.785-.175 7 7 0 11-8.967 8.967.75.75 0 01.961-.96 5.5 5.5 0 007.046-7.046.75.75 0 01.175-.786zm1.616 1.945a7 7 0 01-7.678 7.678 5.5 5.5 0 107.678-7.678z"/>
                    </svg>
                    Fortune
                </h2>
                <div class="row">
                    <section class="largeable-column-fields">
                        <div class="field" style="padding-left: 31px">
                            <b style="color: #7FEC11">Your fortune: Bad Luck</b>
                        </div>
                    </section>
                </div>
            </section>
            <section class="steam">
                <h2 class="field">
                    <svg xmlns="http://www.w3.org/2000/svg" viewBox="0 0 16 16" width="16" height="16">
                        <path fill-rule="evenodd" d="M3.267 1.457c.3.286.312.76.026 1.06A6.475 6.475 0 001.5 7a6.472 6.472 0 001.793 4.483.75.75 0 01-1.086 1.034 8.89 8.89 0 01-.276-.304l.569-.49-.569.49A7.971 7.971 0 010 7c0-2.139.84-4.083 2.207-5.517a.75.75 0 011.06-.026zm9.466 0a.75.75 0 011.06.026A7.975 7.975 0 0116 7c0 2.139-.84 4.083-2.207 5.517a.75.75 0 11-1.086-1.034A6.475 6.475 0 0014.5 7a6.475 6.475 0 00-1.793-4.483.75.75 0 01.026-1.06zM8.75 8.582a1.75 1.75 0 10-1.5 0v5.668a.75.75 0 001.5 0V8.582zM5.331 4.736a.75.75 0 10-1.143-.972A4.983 4.983 0 003 7c0 1.227.443 2.352 1.177 3.222a.75.75 0 001.146-.967A3.483 3.483 0 014.5 7c0-.864.312-1.654.831-2.264zm6.492-.958a.75.75 0 00-1.146.967c.514.61.823 1.395.823 2.255 0 .86-.31 1.646-.823 2.255a.75.75 0 101.146.967A4.983 4.983 0 0013 7a4.983 4.983 0 00-1.177-3.222z"/>
                    </svg>
                    Steam
                </h2>
                <div class="row">
                    <section>
                        <div class="field error">
                            <svg xmlns="http://www.w3.org/2000/svg" viewBox="0 0 16 16" width="16" height="16">
                                <path fill-rule="evenodd" d="M2.343 13.657A8 8 0 1113.657 2.343 8 8 0 012.343 13.657zM6.03 4.97a.75.75 0 00-1.06 1.06L6.94 8 4.97 9.97a.75.75 0 101.06 1.06L8 9.06l1.97 1.97a.75.75 0 101.06-1.06L9.06 8l1.97-1.97a.75.75 0 10-1.06-1.06L8 6.94 6.03 4.97z"/>
                            </svg>
                            Unexpected error
                        </div>
                    </section>
                </div>
            </section>
        </div>
        <div xmlns="http://www.w3.org/1999/xhtml" id="metrics-end"></div>
    </foreignObject>
</svg>